# xmcd CD database file
#
# Track frame offsets:
#	150
#	13892
#	27957
#	42296
#	58350
#	72241
#	86953
#	102675
#	119854
#	135082
#	152152
#	170169
#	181219
#
# Disc length: 2673 seconds
#
# Revision: 1
# Processed by: cddbd v1.5.2PL0 Copyright (c) Steve Scherf et al.
# Submitted via: CDex 1.70beta2
#
DISCID=c10a6f0d
DTITLE=Santiano - Bis Ans Ende Der Welt
DYEAR=2012
DGENRE=Folk
TTITLE0=Santiano
TTITLE1=Frei Wie Der Wind
TTITLE2=Weit Übers Meer (David's Song)
TTITLE3=Whiskey In The Jar
TTITLE4=Alle Die Mit Uns Auf Kaperfahrt Fahren
TTITLE5=Es Gibt Nur Wasser
TTITLE6=Auf Nach Californio
TTITLE7=Garteen Eden (Scarborough Fair)
TTITLE8=Irish Rover
TTITLE9=500 Meilen (500 Miles)
TTITLE10=Der Wind Ruft Meinen Namen
TTITLE11=Blow Boys Blow
TTITLE12=Land In Sicht
EXTD=YEAR: 2012
EXTT0=
EXTT1=
EXTT2=
EXTT3=
EXTT4=
EXTT5=
EXTT6=
EXTT7=
EXTT8=
EXTT9=
EXTT10=
EXTT11=
EXTT12=
PLAYORDER=
